<svg width="811" height="123" viewBox="0 0 811 123" fill="none" xmlns="http://www.w3.org/2000/svg">
<path d="M29.57 21.613C28.47 22.183 28.16 22.983 27.4 24.613C26.65 26.243 26.25 27.283 25.81 29.763C25.37 32.253 25.57 33.863 25.21 37.013C24.85 40.173 24.66 41.953 24.01 45.543C23.37 49.133 22.92 51.073 21.99 54.963C21.06 58.853 20.49 60.933 19.36 64.993C18.22 69.053 17.57 71.203 16.3 75.253C15.04 79.293 14.36 81.423 13.02 85.213C11.68 89.013 10.98 90.943 9.61003 94.233C8.25003 97.513 7.29005 99.043 6.20005 101.633C5.11005 104.233 4.76004 105.483 4.15004 107.223C3.54004 108.963 3.29004 109.443 3.16004 110.353C3.03004 111.253 3.41003 111.413 3.50003 111.753C3.58003 112.093 3.69004 111.683 3.60004 112.043C3.51004 112.393 2.83004 113.063 3.04004 113.523C3.25004 113.993 3.76003 114.383 4.64003 114.373C5.53003 114.363 6.32005 114.303 7.45005 113.483C8.59005 112.653 9.17003 112.063 10.31 110.243C11.45 108.423 12.09 107.173 13.13 104.403C14.18 101.623 14.48 99.843 15.55 96.373C16.62 92.893 17.28 90.933 18.5 87.043C19.72 83.153 20.39 81.013 21.66 76.923C22.92 72.833 23.6 70.673 24.84 66.603C26.08 62.523 26.7 60.443 27.86 56.553C29.03 52.663 29.58 50.733 30.67 47.153C31.76 43.563 32.41 41.823 33.31 38.613C34.21 35.403 34.87 33.763 35.16 31.083C35.44 28.413 35.21 27.093 34.75 25.233C34.29 23.363 33.91 22.483 32.88 21.763C31.84 21.033 30.66 21.043 29.57 21.613Z" fill="white" stroke="white"/>
<path d="M21.3 20.003C22.34 20.503 22.97 20.233 24.24 19.963C25.52 19.703 26.11 19.393 27.67 18.663C29.22 17.923 30.03 17.273 32.03 16.303C34.04 15.323 35.14 14.773 37.67 13.803C40.21 12.833 41.67 12.193 44.73 11.443C47.79 10.693 49.59 10.363 52.98 10.053C56.36 9.73299 58.27 9.67301 61.65 9.88301C65.03 10.083 66.85 10.343 69.88 11.073C72.92 11.813 74.46 12.423 76.83 13.553C79.21 14.693 80.24 15.383 81.76 16.743C83.29 18.093 83.9 18.723 84.45 20.333C85.01 21.953 84.91 22.733 84.56 24.823C84.21 26.903 84.01 28.123 82.7 30.773C81.38 33.423 80.44 35.073 77.98 38.073C75.52 41.063 73.85 42.753 70.4 45.763C66.95 48.773 64.82 50.353 60.73 53.123C56.65 55.883 54.27 57.293 49.99 59.573C45.72 61.853 43.37 62.923 39.34 64.533C35.32 66.143 33.21 66.723 29.87 67.613C26.54 68.503 24.86 68.323 22.67 68.973C20.48 69.613 19.98 70.233 18.92 70.833C17.87 71.433 17.73 71.433 17.4 71.973C17.07 72.513 16.9 72.933 17.27 73.533C17.63 74.123 17.87 74.523 19.22 74.953C20.57 75.373 21.52 75.963 24.02 75.653C26.52 75.353 28.24 74.703 31.72 73.443C35.2 72.173 37.29 71.233 41.41 69.313C45.53 67.403 47.91 66.293 52.32 63.883C56.73 61.463 59.17 60.053 63.47 57.253C67.78 54.463 70.02 52.913 73.84 49.893C77.65 46.873 79.54 45.293 82.55 42.143C85.57 38.993 87.01 37.403 88.91 34.163C90.81 30.913 91.63 29.143 92.06 25.913C92.48 22.673 92.09 20.863 91.03 17.983C89.98 15.093 89 13.673 86.78 11.463C84.56 9.26299 83 8.353 79.92 6.943C76.84 5.533 74.95 5.153 71.39 4.403C67.82 3.653 65.86 3.433 62.08 3.183C58.3 2.933 56.25 2.96301 52.5 3.13301C48.76 3.30301 46.82 3.58299 43.35 4.05299C39.88 4.52299 38.2 4.76298 35.15 5.48298C32.1 6.21298 30.6 6.59301 28.11 7.66301C25.62 8.73301 24.37 9.513 22.69 10.843C21.01 12.173 20.44 12.963 19.71 14.293C18.98 15.623 18.73 16.353 19.05 17.503C19.37 18.643 20.26 19.513 21.3 20.003Z" fill="white" stroke="white"/>
<path d="M108.97 75.033C109.16 73.863 108.88 73.183 108.17 72.253C107.45 71.323 106.78 70.893 105.4 70.363C104.03 69.833 103.06 69.713 101.29 69.603C99.5199 69.493 98.56 69.573 96.55 69.823C94.54 70.073 93.4199 70.213 91.2299 70.863C89.0399 71.503 87.8399 71.943 85.5899 73.053C83.3499 74.163 82.1599 74.873 79.9999 76.403C77.8299 77.933 76.6899 78.833 74.7599 80.693C72.8299 82.563 71.8499 83.653 70.3499 85.723C68.8399 87.793 68.1399 88.913 67.2299 91.023C66.3299 93.143 65.9099 94.263 65.8399 96.303C65.7599 98.353 65.9399 99.523 66.8399 101.253C67.7399 102.973 68.58 103.903 70.33 104.913C72.08 105.933 73.3099 106.273 75.5999 106.323C77.8799 106.373 79.22 106.083 81.77 105.173C84.31 104.263 85.6799 103.463 88.3199 101.783C90.9599 100.093 92.2699 98.873 94.9799 96.763C97.6999 94.643 99.1799 93.453 101.9 91.203C104.63 88.953 106.02 87.663 108.6 85.523C111.18 83.383 112.8 82.523 114.81 80.493C116.81 78.463 117.92 77.183 118.64 75.383C119.37 73.583 119.17 72.473 118.42 71.503C117.67 70.523 116.55 70.203 114.9 70.513C113.25 70.813 111.9 71.373 110.19 73.033C108.47 74.693 107.57 76.283 106.33 78.793C105.09 81.303 104.66 82.963 103.98 85.603C103.3 88.233 102.92 89.563 102.92 91.983C102.93 94.403 103.03 95.673 104 97.693C104.96 99.703 105.8 100.793 107.75 102.053C109.7 103.323 111.08 103.813 113.73 104.033C116.39 104.253 118 104.053 121.04 103.153C124.07 102.253 125.6 101.143 128.9 99.553C132.19 97.953 133.97 96.983 137.52 95.183C141.07 93.373 142.97 92.333 146.64 90.523C150.31 88.723 152.25 87.753 155.85 86.163C159.46 84.573 161.33 83.783 164.66 82.593C167.99 81.393 169.68 80.983 172.51 80.173C175.35 79.363 176.72 79.093 178.84 78.533C180.97 77.973 181.86 77.763 183.15 77.373C184.44 76.983 184.85 77.003 185.3 76.603C185.75 76.203 185.61 75.973 185.42 75.373C185.23 74.773 184.98 74.113 184.35 73.603C183.71 73.083 183.28 72.733 182.25 72.793C181.23 72.863 180.58 73.323 179.23 73.933C177.88 74.533 177.12 74.973 175.5 75.813C173.88 76.643 172.91 77.053 171.16 78.103C169.4 79.143 168.46 79.743 166.74 81.023C165.03 82.303 164.1 82.983 162.57 84.503C161.05 86.023 160.26 86.893 159.11 88.613C157.97 90.323 157.38 91.243 156.83 93.093C156.28 94.933 156.07 96.013 156.35 97.833C156.63 99.663 157.04 100.763 158.24 102.213C159.44 103.653 160.44 104.413 162.37 105.073C164.29 105.723 165.54 105.803 167.88 105.483C170.22 105.173 171.55 104.753 174.06 103.483C176.58 102.223 177.83 101.183 180.46 99.143C183.08 97.103 184.41 95.823 187.18 93.303C189.95 90.783 191.42 89.373 194.3 86.533C197.17 83.683 198.66 82.113 201.54 79.073C204.42 76.043 205.91 74.413 208.7 71.333C211.49 68.253 212.88 66.633 215.49 63.663C218.09 60.693 219.36 59.183 221.71 56.483C224.06 53.783 225.26 52.523 227.22 50.163C229.18 47.793 230.08 46.643 231.51 44.643C232.94 42.643 233.77 41.843 234.35 40.153C234.93 38.473 235.06 37.433 234.41 36.223C233.76 35.003 232.67 34.223 231.11 34.103C229.56 33.983 228.34 34.243 226.65 35.603C224.96 36.963 224.18 38.233 222.66 40.903C221.15 43.583 220.71 45.623 219.07 48.983C217.44 52.343 216.33 54.163 214.5 57.713C212.66 61.273 211.63 63.193 209.88 66.753C208.14 70.323 207.2 72.153 205.76 75.533C204.32 78.913 203.45 80.573 202.69 83.673C201.94 86.763 201.74 88.313 202 91.013C202.25 93.713 202.66 95.083 203.97 97.163C205.27 99.243 206.31 100.213 208.51 101.413C210.71 102.603 212.16 103.013 214.97 103.143C217.77 103.283 219.44 102.983 222.55 102.093C225.65 101.193 227.21 100.193 230.48 98.673C233.75 97.143 235.48 96.213 238.91 94.483C242.33 92.753 244.16 91.753 247.61 90.023C251.06 88.283 252.85 87.343 256.14 85.793C259.43 84.253 261.11 83.513 264.06 82.303C267.02 81.083 268.52 80.643 270.92 79.703C273.32 78.763 274.34 78.253 276.07 77.583C277.81 76.913 278.56 76.773 279.59 76.363C280.62 75.953 280.9 75.973 281.22 75.533C281.53 75.093 281.39 74.823 281.15 74.173C280.91 73.523 280.56 72.833 280 72.283C279.44 71.733 279.13 71.463 278.36 71.423C277.6 71.383 277.22 71.653 276.17 72.093C275.12 72.533 274.42 72.933 273.12 73.633C271.82 74.343 271.09 74.773 269.65 75.623C268.21 76.463 267.43 76.853 265.93 77.873C264.43 78.903 263.59 79.473 262.15 80.753C260.72 82.023 260.01 82.753 258.77 84.253C257.53 85.743 256.87 86.543 255.95 88.233C255.02 89.923 254.56 90.873 254.13 92.693C253.7 94.513 253.55 95.533 253.8 97.343C254.05 99.143 254.36 100.183 255.38 101.703C256.4 103.233 257.21 104.043 258.91 104.973C260.6 105.913 261.7 106.233 263.83 106.373C265.97 106.513 267.19 106.333 269.58 105.673C271.96 105.003 273.25 104.463 275.74 103.053C278.24 101.633 279.48 100.613 282.05 98.583C284.62 96.543 285.94 95.293 288.58 92.873C291.22 90.453 292.6 89.133 295.26 86.493C297.93 83.853 299.3 82.423 301.9 79.663C304.5 76.903 305.81 75.453 308.26 72.703C310.72 69.953 311.91 68.533 314.16 65.913C316.41 63.303 317.53 62.023 319.5 59.613C321.47 57.203 322.47 56.043 324.03 53.863C325.58 51.683 326.2 50.563 327.26 48.703C328.32 46.843 329.03 46.143 329.31 44.563C329.59 42.993 329.53 41.963 328.67 40.843C327.8 39.723 326.6 39.003 324.98 38.953C323.36 38.903 322.28 39.263 320.58 40.583C318.89 41.903 318.01 43.033 316.5 45.553C314.99 48.073 314.58 50.013 313.02 53.193C311.46 56.373 310.44 58.093 308.7 61.463C306.95 64.833 305.94 66.633 304.29 70.023C302.63 73.413 301.75 75.163 300.43 78.433C299.1 81.693 298.25 83.333 297.66 86.363C297.08 89.393 297.05 90.963 297.49 93.593C297.93 96.223 298.39 97.543 299.84 99.513C301.29 101.473 302.39 102.413 304.72 103.423C307.06 104.433 308.62 104.763 311.51 104.563C314.4 104.363 316.01 103.743 319.18 102.433C322.35 101.123 323.95 99.993 327.35 98.013C330.76 96.023 332.59 94.833 336.19 92.513C339.78 90.183 341.73 88.873 345.35 86.383C348.96 83.893 350.86 82.533 354.26 80.063C357.66 77.593 359.35 76.313 362.34 74.033C365.32 71.753 366.9 70.793 369.19 68.653C371.48 66.523 372.44 65.413 373.78 63.363C375.12 61.313 375.57 60.313 375.88 58.403C376.19 56.493 376.07 55.453 375.33 53.823C374.6 52.203 373.81 51.253 372.2 50.283C370.6 49.323 369.38 49.003 367.29 48.983C365.2 48.963 364 49.353 361.76 50.193C359.51 51.043 358.33 51.743 356.07 53.213C353.8 54.683 352.59 55.593 350.41 57.533C348.24 59.463 347.11 60.603 345.17 62.883C343.22 65.163 342.26 66.423 340.69 68.933C339.12 71.433 338.36 72.783 337.33 75.413C336.3 78.043 335.88 79.453 335.56 82.063C335.23 84.683 335.23 86.043 335.71 88.473C336.19 90.893 336.65 92.163 337.97 94.203C339.28 96.243 340.21 97.223 342.27 98.663C344.32 100.093 345.61 100.683 348.24 101.383C350.86 102.083 352.42 102.263 355.39 102.163C358.37 102.053 359.97 101.653 363.12 100.853C366.27 100.063 367.91 99.393 371.12 98.173C374.33 96.953 376 96.203 379.16 94.763C382.33 93.333 383.96 92.473 386.95 90.973C389.93 89.483 391.47 88.763 394.1 87.293C396.72 85.833 397.95 85.023 400.08 83.653C402.21 82.283 403.32 81.703 404.74 80.453C406.15 79.193 406.87 78.483 407.16 77.393C407.44 76.303 406.98 75.563 406.16 75.003C405.34 74.453 404.37 74.233 403.05 74.613C401.74 75.003 400.88 75.563 399.58 76.913C398.28 78.263 397.71 79.483 396.56 81.353C395.4 83.233 394.79 84.483 393.83 86.273C392.86 88.063 392.14 88.833 391.74 90.293C391.34 91.763 391.28 92.513 391.83 93.593C392.39 94.673 393.25 95.303 394.5 95.703C395.75 96.103 396.78 96.103 398.09 95.593C399.4 95.093 399.98 94.473 401.04 93.173C402.1 91.863 402.35 90.693 403.4 89.063C404.45 87.443 405.08 86.563 406.3 85.053C407.52 83.533 408.23 82.773 409.51 81.493C410.79 80.213 411.49 79.593 412.72 78.633C413.95 77.663 414.54 77.253 415.65 76.653C416.75 76.063 417.21 75.873 418.24 75.663C419.26 75.453 419.71 75.513 420.77 75.623C421.83 75.733 422.32 75.903 423.54 76.213C424.77 76.533 425.42 76.793 426.88 77.183C428.34 77.573 429.15 77.813 430.86 78.153C432.56 78.503 433.49 78.683 435.4 78.913C437.3 79.143 438.31 79.253 440.39 79.313C442.47 79.373 443.61 79.353 445.79 79.203C447.98 79.063 449.1 78.903 451.3 78.603C453.51 78.293 454.66 78.083 456.81 77.683C458.97 77.293 460.08 77.053 462.09 76.633C464.1 76.213 465.11 75.943 466.88 75.593C468.64 75.243 469.49 75.083 470.92 74.873C472.35 74.663 473.02 74.603 474.04 74.533C475.07 74.473 475.48 74.503 476.05 74.553C476.61 74.593 476.72 74.643 476.87 74.753C477.02 74.873 476.9 74.913 476.8 75.113C476.7 75.323 476.6 75.393 476.37 75.783C476.15 76.173 476.06 76.403 475.68 77.043C475.29 77.673 475.12 78.113 474.47 78.953C473.82 79.803 473.42 80.303 472.42 81.253C471.42 82.203 470.81 82.753 469.47 83.693C468.14 84.643 467.37 85.123 465.74 85.973C464.12 86.823 463.16 87.223 461.34 87.933C459.52 88.653 458.52 89.023 456.66 89.543C454.79 90.063 453.79 90.173 452.03 90.553C450.27 90.923 449.21 91.063 447.85 91.423C446.48 91.773 446 91.883 445.22 92.323C444.43 92.763 444.29 93.153 443.93 93.603C443.57 94.053 443.63 94.143 443.41 94.573C443.19 94.993 442.86 95.213 442.84 95.733C442.82 96.253 442.82 96.583 443.31 97.183C443.8 97.783 444.22 98.303 445.3 98.723C446.37 99.133 447.03 99.223 448.68 99.253C450.32 99.293 451.49 99.203 453.53 98.893C455.57 98.583 456.7 98.283 458.88 97.713C461.05 97.133 462.22 96.813 464.39 96.033C466.56 95.243 467.7 94.783 469.73 93.763C471.75 92.743 472.76 92.143 474.52 90.933C476.29 89.713 477.11 89.033 478.53 87.673C479.95 86.323 480.6 85.623 481.62 84.163C482.64 82.703 483.12 81.913 483.64 80.383C484.17 78.843 484.32 77.993 484.26 76.483C484.21 74.973 483.99 74.153 483.36 72.843C482.73 71.523 482.2 70.863 481.13 69.903C480.06 68.943 479.37 68.583 478.02 68.053C476.67 67.513 475.94 67.403 474.38 67.223C472.82 67.033 471.99 67.053 470.22 67.133C468.45 67.213 467.48 67.343 465.54 67.613C463.61 67.883 462.57 68.113 460.54 68.463C458.51 68.813 457.45 69.013 455.38 69.353C453.3 69.683 452.2 69.883 450.17 70.143C448.14 70.403 447.15 70.533 445.24 70.663C443.32 70.783 442.35 70.793 440.58 70.763C438.8 70.743 437.98 70.703 436.37 70.533C434.75 70.353 434.02 70.173 432.5 69.883C430.99 69.593 430.3 69.373 428.8 69.063C427.31 68.753 426.57 68.523 425.01 68.313C423.45 68.113 422.64 68.013 420.99 68.043C419.34 68.073 418.47 68.123 416.76 68.473C415.05 68.823 414.19 69.093 412.46 69.813C410.73 70.533 409.84 70.993 408.13 72.093C406.42 73.193 405.56 73.913 403.9 75.293C402.24 76.673 401.43 77.483 399.82 79.013C398.21 80.533 397.37 81.373 395.85 82.913C394.33 84.443 393.25 85.133 392.22 86.663C391.18 88.203 390.74 89.073 390.69 90.583C390.64 92.083 391.1 93.103 391.95 94.173C392.8 95.243 393.7 95.773 394.94 95.933C396.19 96.093 396.89 95.823 398.17 94.973C399.46 94.113 399.99 93.153 401.37 91.643C402.76 90.133 403.68 89.153 405.09 87.423C406.5 85.693 407.55 84.803 408.43 82.983C409.3 81.153 409.59 80.013 409.48 78.303C409.37 76.593 408.87 75.543 407.86 74.433C406.85 73.313 405.91 72.803 404.43 72.743C402.96 72.693 402.17 73.283 400.47 74.153C398.76 75.023 397.94 75.793 395.89 77.083C393.84 78.373 392.67 79.123 390.21 80.613C387.75 82.103 386.39 83.023 383.6 84.543C380.8 86.053 379.22 86.873 376.23 88.183C373.24 89.483 371.63 90.123 368.65 91.043C365.68 91.963 364.07 92.313 361.35 92.793C358.63 93.283 357.32 93.373 355.05 93.483C352.78 93.583 351.74 93.553 350 93.303C348.26 93.043 347.54 92.823 346.35 92.203C345.16 91.593 344.73 91.213 344.05 90.223C343.37 89.223 343.14 88.603 342.97 87.213C342.79 85.823 342.8 85.003 343.16 83.273C343.52 81.543 343.86 80.513 344.77 78.563C345.68 76.623 346.33 75.523 347.71 73.543C349.09 71.563 349.97 70.503 351.68 68.663C353.39 66.813 354.41 65.863 356.26 64.323C358.12 62.773 359.16 62.063 360.96 60.963C362.76 59.853 363.75 59.493 365.26 58.803C366.78 58.123 367.51 58.003 368.52 57.533C369.54 57.073 369.86 56.813 370.35 56.473C370.83 56.133 370.91 55.803 370.93 55.833C370.95 55.863 370.96 55.943 370.43 56.623C369.9 57.293 369.51 57.823 368.26 59.203C367.01 60.573 366.15 61.493 364.18 63.513C362.21 65.523 361.07 66.883 358.4 69.283C355.74 71.673 354.09 73.003 350.85 75.483C347.6 77.963 345.72 79.313 342.16 81.693C338.61 84.073 336.64 85.323 333.05 87.373C329.47 89.423 327.57 90.473 324.23 91.963C320.9 93.453 319.14 93.963 316.38 94.833C313.62 95.703 312.38 95.893 310.45 96.313C308.52 96.743 307.85 97.023 306.74 96.963C305.62 96.893 305.34 96.793 304.86 96.003C304.39 95.213 304.27 94.633 304.34 93.003C304.42 91.383 304.71 90.323 305.22 87.883C305.73 85.453 305.9 83.823 306.9 80.833C307.9 77.843 308.67 76.113 310.22 72.913C311.78 69.713 312.78 67.943 314.68 64.823C316.58 61.713 317.63 60.033 319.71 57.343C321.79 54.643 323.41 53.573 325.1 51.363C326.79 49.143 327.49 48.063 328.14 46.273C328.78 44.483 328.78 43.593 328.32 42.413C327.87 41.233 326.9 40.573 325.88 40.373C324.85 40.173 324.2 40.553 323.22 41.423C322.23 42.303 322.08 43.163 320.97 44.753C319.86 46.343 319.11 47.293 317.66 49.383C316.21 51.473 315.44 52.743 313.7 55.203C311.97 57.663 311.02 59.033 308.97 61.683C306.92 64.343 305.78 65.763 303.44 68.473C301.1 71.183 299.83 72.603 297.28 75.253C294.73 77.893 293.36 79.263 290.69 81.683C288.02 84.103 286.62 85.313 283.95 87.353C281.28 89.393 279.84 90.343 277.33 91.883C274.83 93.423 273.53 93.973 271.42 95.033C269.32 96.083 268.38 96.553 266.81 97.173C265.24 97.803 264.56 97.903 263.56 98.143C262.57 98.393 262.32 98.423 261.83 98.383C261.35 98.353 261.3 98.283 261.14 97.983C260.99 97.693 260.95 97.513 261.06 96.913C261.17 96.313 261.29 95.883 261.68 94.983C262.08 94.093 262.34 93.493 263.04 92.443C263.74 91.393 264.22 90.783 265.16 89.733C266.11 88.683 266.65 88.123 267.76 87.183C268.86 86.253 269.48 85.833 270.7 85.053C271.91 84.283 272.59 83.923 273.82 83.323C275.06 82.723 275.65 82.483 276.88 82.053C278.11 81.623 278.81 81.673 279.97 81.193C281.13 80.713 281.85 80.523 282.68 79.653C283.51 78.783 283.85 78.103 284.1 76.823C284.35 75.543 284.37 74.483 283.93 73.253C283.5 72.023 283.01 71.333 281.94 70.683C280.86 70.043 280.15 70.003 278.56 70.023C276.96 70.033 276.06 70.253 273.97 70.763C271.87 71.283 270.63 71.563 268.07 72.613C265.52 73.653 264.13 74.513 261.18 75.993C258.23 77.473 256.6 78.363 253.32 80.033C250.04 81.703 248.24 82.653 244.79 84.353C241.34 86.043 239.49 86.993 236.08 88.483C232.67 89.973 230.88 90.753 227.73 91.813C224.58 92.863 222.95 93.143 220.34 93.763C217.73 94.373 216.54 94.603 214.69 94.893C212.83 95.193 212.17 95.403 211.08 95.233C209.99 95.063 209.69 94.933 209.25 94.043C208.8 93.163 208.73 92.543 208.85 90.813C208.98 89.073 209.27 87.963 209.87 85.383C210.47 82.803 210.74 81.093 211.87 77.923C212.99 74.743 213.83 72.903 215.49 69.493C217.15 66.093 218.17 64.203 220.17 60.873C222.16 57.553 223.29 55.783 225.47 52.883C227.65 49.973 229.34 48.723 231.08 46.333C232.83 43.953 233.59 42.853 234.21 40.963C234.82 39.063 234.71 38.093 234.16 36.873C233.61 35.653 232.61 34.953 231.45 34.843C230.29 34.723 229.57 35.223 228.37 36.303C227.17 37.393 226.81 38.383 225.44 40.273C224.06 42.163 223.24 43.333 221.51 45.783C219.78 48.223 218.88 49.683 216.77 52.503C214.67 55.313 213.46 56.843 210.99 59.833C208.52 62.833 207.16 64.443 204.43 67.473C201.7 70.513 200.21 72.103 197.33 75.003C194.45 77.893 192.94 79.393 190.03 81.973C187.11 84.543 185.59 85.813 182.75 87.883C179.91 89.943 178.37 90.813 175.82 92.283C173.26 93.743 171.97 94.253 169.98 95.193C168 96.143 167.17 96.473 165.89 97.003C164.61 97.533 164.2 97.623 163.59 97.843C162.98 98.073 162.95 98.173 162.84 98.133C162.72 98.083 162.79 98.063 163 97.643C163.22 97.213 163.36 96.843 163.91 96.013C164.47 95.173 164.86 94.543 165.75 93.463C166.65 92.383 167.21 91.693 168.41 90.603C169.6 89.513 170.34 88.973 171.75 88.023C173.15 87.073 173.94 86.613 175.45 85.843C176.96 85.083 177.79 84.783 179.31 84.193C180.83 83.603 181.65 83.453 183.03 82.903C184.41 82.343 185.14 82.313 186.21 81.423C187.27 80.533 187.92 79.843 188.35 78.453C188.78 77.053 188.8 75.773 188.37 74.433C187.95 73.103 187.4 72.473 186.22 71.763C185.05 71.053 184.3 70.953 182.5 70.883C180.69 70.813 179.63 70.893 177.2 71.393C174.76 71.883 173.29 72.293 170.31 73.353C167.34 74.423 165.7 75.243 162.32 76.713C158.94 78.183 157.06 79.033 153.4 80.713C149.75 82.393 147.77 83.373 144.05 85.093C140.33 86.823 138.38 87.813 134.8 89.323C131.21 90.833 129.35 91.633 126.12 92.663C122.89 93.693 121.19 93.853 118.66 94.483C116.13 95.113 115.09 95.453 113.48 95.803C111.88 96.143 111.39 96.303 110.63 96.233C109.87 96.153 109.76 96.093 109.67 95.443C109.58 94.803 109.68 94.293 110.2 93.003C110.72 91.713 111.15 90.773 112.28 89.013C113.41 87.243 114.51 86.203 115.84 84.163C117.17 82.123 118.18 80.873 118.92 78.803C119.67 76.733 119.82 75.483 119.57 73.833C119.32 72.183 118.84 71.183 117.67 70.543C116.49 69.903 115.45 69.853 113.7 70.643C111.95 71.423 110.9 72.563 108.9 74.453C106.91 76.333 106.03 77.833 103.72 80.053C101.42 82.283 100 83.493 97.36 85.573C94.72 87.643 93.2299 88.733 90.5299 90.423C87.8299 92.113 86.2999 92.783 83.8699 94.013C81.4399 95.233 80.2399 95.723 78.3799 96.543C76.5299 97.353 75.73 97.623 74.58 98.093C73.44 98.573 73.1299 98.753 72.6499 98.913C72.1799 99.063 72.1999 99.153 72.2099 98.863C72.2099 98.573 72.2799 98.303 72.6899 97.463C73.0899 96.613 73.3899 95.943 74.2499 94.623C75.1099 93.313 75.6899 92.413 76.9799 90.893C78.2699 89.363 79.0999 88.463 80.6999 87.003C82.2999 85.533 83.2399 84.773 84.9999 83.573C86.7499 82.363 87.7199 81.823 89.4699 80.973C91.2099 80.133 92.1199 79.833 93.7399 79.353C95.3599 78.873 96.22 78.723 97.58 78.583C98.95 78.433 99.4999 78.503 100.57 78.613C101.65 78.733 102.06 79.063 102.96 79.163C103.85 79.263 104.19 79.343 105.05 79.123C105.9 78.903 106.44 78.883 107.22 78.063C108.01 77.243 108.78 76.193 108.97 75.033Z" fill="white" stroke="white"/>
<path d="M589.1 35.493C588.03 35.573 587.81 35.933 586.88 36.693C585.94 37.453 585.46 37.823 584.42 39.303C583.39 40.793 582.83 41.863 581.7 44.123C580.57 46.373 580.16 47.783 578.78 50.563C577.41 53.353 576.53 54.923 574.82 58.033C573.1 61.133 572.07 62.823 570.19 66.083C568.31 69.343 567.22 71.113 565.4 74.333C563.57 77.543 562.58 79.143 561.07 82.153C559.55 85.163 558.66 86.593 557.84 89.393C557.02 92.193 556.78 93.633 556.97 96.153C557.15 98.673 557.5 99.973 558.75 101.993C559.99 104.013 560.99 104.973 563.2 106.263C565.4 107.553 566.83 108.143 569.78 108.443C572.74 108.743 574.47 108.303 577.98 107.773C581.49 107.233 583.38 106.683 587.32 105.763C591.25 104.843 593.41 104.243 597.67 103.163C601.93 102.073 604.23 101.483 608.62 100.343C613.01 99.203 615.29 98.573 619.62 97.473C623.95 96.363 626.14 95.793 630.26 94.803C634.38 93.813 636.41 93.343 640.2 92.513C643.99 91.683 645.83 91.283 649.21 90.653C652.6 90.013 654.22 89.863 657.14 89.323C660.06 88.793 661.41 88.533 663.82 87.973C666.22 87.403 667.31 87.153 669.18 86.493C671.04 85.833 671.84 85.583 673.14 84.673C674.44 83.753 675 83.253 675.67 81.923C676.34 80.593 676.6 79.583 676.49 78.033C676.38 76.483 676.06 75.473 675.13 74.163C674.19 72.853 673.43 72.293 671.82 71.483C670.21 70.663 669.15 70.443 667.09 70.093C665.03 69.743 663.89 69.643 661.52 69.733C659.15 69.823 657.83 69.953 655.25 70.543C652.66 71.143 651.27 71.553 648.6 72.713C645.92 73.883 644.49 74.653 641.86 76.373C639.23 78.083 637.89 79.203 635.45 81.293C633.01 83.383 631.69 84.493 629.66 86.813C627.63 89.143 626.69 90.473 625.31 92.923C623.93 95.373 623.34 96.673 622.78 99.073C622.22 101.463 622.11 102.723 622.51 104.873C622.91 107.033 623.41 108.213 624.8 109.843C626.18 111.483 627.28 112.273 629.43 113.053C631.58 113.843 632.98 113.963 635.57 113.763C638.15 113.573 639.63 113.173 642.36 112.073C645.1 110.983 646.48 110.003 649.26 108.283C652.04 106.563 653.51 105.473 656.28 103.493C659.04 101.513 660.44 100.363 663.07 98.403C665.7 96.433 667.31 95.573 669.44 93.673C671.57 91.773 672.77 90.583 673.71 88.903C674.66 87.223 674.63 86.233 674.16 85.273C673.69 84.303 672.77 83.923 671.37 84.083C669.98 84.253 668.66 84.673 667.18 86.083C665.7 87.493 664.89 88.883 663.98 91.143C663.06 93.403 662.87 94.953 662.61 97.373C662.34 99.793 662.16 101.073 662.65 103.223C663.15 105.363 663.63 106.563 665.09 108.093C666.54 109.633 667.67 110.373 669.92 110.913C672.16 111.443 673.64 111.503 676.31 110.773C678.98 110.033 680.38 109.103 683.28 107.233C686.18 105.363 687.62 103.983 690.81 101.413C694.01 98.833 695.77 97.373 699.26 94.383C702.76 91.383 704.64 89.703 708.28 86.433C711.92 83.163 713.85 81.373 717.45 78.003C721.04 74.633 722.87 72.853 726.26 69.583C729.64 66.313 731.36 64.633 734.38 61.653C737.39 58.663 738.85 57.223 741.33 54.643C743.81 52.063 745.16 51.003 746.77 48.733C748.38 46.473 748.95 45.333 749.39 43.313C749.83 41.293 749.76 40.213 748.96 38.653C748.17 37.083 747.22 36.153 745.39 35.493C743.56 34.833 742.17 34.693 739.81 35.353C737.45 36.023 736.07 36.823 733.6 38.823C731.13 40.813 730.05 42.473 727.46 45.343C724.87 48.213 723.39 49.833 720.67 53.183C717.96 56.533 716.47 58.393 713.89 62.093C711.31 65.803 709.98 67.813 707.78 71.713C705.57 75.603 704.53 77.723 702.88 81.583C701.24 85.433 700.46 87.373 699.55 91.003C698.64 94.633 698.14 96.503 698.32 99.723C698.5 102.953 699.09 104.573 700.44 107.133C701.8 109.703 702.83 110.883 705.09 112.553C707.35 114.213 708.87 114.833 711.72 115.453C714.58 116.073 716.3 116.053 719.37 115.643C722.45 115.233 724.14 114.593 727.1 113.413C730.07 112.223 731.65 111.383 734.21 109.703C736.77 108.023 738.01 107.003 739.91 104.993C741.81 102.993 742.73 101.883 743.71 99.693C744.69 97.503 744.96 96.203 744.8 94.033C744.63 91.863 744.16 90.593 742.89 88.833C741.62 87.063 740.5 86.153 738.44 85.203C736.38 84.263 734.89 84.073 732.61 84.093C730.34 84.123 729.07 84.493 727.06 85.323C725.06 86.143 723.95 86.733 722.6 88.223C721.25 89.713 720.62 90.853 720.3 92.763C719.99 94.683 720.15 95.983 721.02 97.813C721.88 99.643 722.71 100.613 724.63 101.913C726.55 103.213 727.87 103.763 730.62 104.323C733.37 104.873 735.06 104.743 738.39 104.673C741.73 104.603 743.57 104.333 747.29 103.993C751.01 103.643 753.07 103.393 757 102.963C760.92 102.523 763.04 102.263 766.92 101.803C770.8 101.333 772.81 101.023 776.41 100.643C780.02 100.263 781.82 100.243 784.94 99.893C788.07 99.553 789.79 99.513 792.04 98.923C794.3 98.333 794.99 97.733 796.23 96.953C797.46 96.173 797.91 95.813 798.22 95.033C798.52 94.253 798.33 93.623 797.75 93.053C797.17 92.473 796.69 92.453 795.32 92.163C793.95 91.883 793.2 91.513 790.92 91.613C788.64 91.723 787 92.163 783.93 92.693C780.85 93.223 779.1 93.683 775.55 94.273C772 94.863 770 95.163 766.18 95.623C762.35 96.073 760.26 96.313 756.43 96.563C752.59 96.823 750.54 96.973 747.01 96.913C743.49 96.853 741.72 96.643 738.79 96.283C735.86 95.913 734.5 95.473 732.38 95.093C730.26 94.713 729.42 94.563 728.18 94.373C726.95 94.193 726.65 94.173 726.22 94.163C725.79 94.143 725.82 94.293 726.01 94.283C726.21 94.283 726.46 94.263 727.2 94.113C727.95 93.963 728.6 93.733 729.74 93.533C730.87 93.343 731.62 93.223 732.86 93.143C734.1 93.073 734.89 93.133 735.93 93.163C736.98 93.193 737.53 93.093 738.08 93.293C738.64 93.493 738.81 93.593 738.7 94.163C738.6 94.733 738.42 95.153 737.56 96.143C736.71 97.133 736 97.853 734.42 99.103C732.83 100.353 731.74 101.143 729.63 102.383C727.51 103.633 726.19 104.383 723.85 105.323C721.51 106.273 720.14 106.653 717.94 107.123C715.75 107.603 714.66 107.773 712.86 107.713C711.06 107.643 710.24 107.523 708.96 106.803C707.67 106.093 707.14 105.623 706.45 104.123C705.77 102.623 705.67 101.673 705.53 99.313C705.38 96.953 705.2 95.443 705.73 92.333C706.26 89.213 706.83 87.313 708.2 83.733C709.57 80.143 710.52 78.073 712.57 74.403C714.62 70.733 715.91 68.803 718.45 65.373C721 61.933 722.5 60.173 725.29 57.233C728.09 54.283 729.66 52.803 732.44 50.633C735.21 48.463 736.93 47.853 739.17 46.383C741.41 44.913 742.36 44.363 743.63 43.283C744.89 42.193 745.16 41.663 745.5 40.963C745.84 40.263 745.65 39.793 745.34 39.773C745.02 39.763 744.78 39.923 743.9 40.873C743.02 41.813 742.39 42.553 740.94 44.493C739.48 46.433 738.73 47.883 736.64 50.573C734.54 53.263 733.25 54.843 730.47 57.933C727.7 61.023 726.02 62.733 722.75 66.023C719.47 69.323 717.67 71.103 714.1 74.423C710.54 77.733 708.59 79.483 704.92 82.593C701.25 85.713 699.33 87.323 695.75 90.013C692.17 92.703 690.33 94.033 687.03 96.043C683.73 98.053 681.97 98.803 679.26 100.083C676.55 101.363 675.28 101.663 673.48 102.443C671.69 103.223 671.14 103.603 670.29 103.973C669.45 104.333 669.39 104.483 669.25 104.273C669.11 104.073 669.2 103.823 669.59 102.963C669.97 102.103 670.26 101.393 671.16 99.983C672.07 98.573 673.1 97.723 674.11 95.913C675.11 94.103 675.83 92.903 676.17 90.943C676.51 88.993 676.42 87.703 675.82 86.133C675.22 84.563 674.58 83.643 673.18 83.103C671.78 82.553 670.71 82.583 668.83 83.413C666.95 84.233 665.89 85.433 663.8 87.233C661.7 89.043 660.73 90.443 658.36 92.423C655.99 94.403 654.58 95.443 651.94 97.153C649.31 98.863 647.77 99.703 645.19 100.983C642.6 102.263 641.2 102.713 639.01 103.553C636.82 104.403 635.82 104.743 634.23 105.203C632.63 105.663 632 105.763 631.04 105.853C630.08 105.933 629.83 105.973 629.43 105.643C629.02 105.303 628.93 105.053 629 104.173C629.08 103.303 629.17 102.663 629.8 101.253C630.43 99.843 630.91 98.893 632.13 97.113C633.35 95.333 634.18 94.263 635.91 92.353C637.63 90.443 638.66 89.323 640.76 87.573C642.86 85.823 644.16 84.973 646.41 83.613C648.67 82.243 649.89 81.673 652.05 80.763C654.21 79.853 655.26 79.503 657.2 79.063C659.14 78.623 660.1 78.573 661.74 78.563C663.38 78.553 664.12 78.733 665.4 79.023C666.68 79.303 667.22 79.693 668.15 79.973C669.08 80.263 669.4 80.453 670.05 80.433C670.71 80.413 671.07 80.143 671.42 79.863C671.77 79.593 672 79.243 671.82 79.063C671.64 78.883 671.43 78.843 670.51 78.953C669.59 79.063 668.9 79.273 667.23 79.613C665.55 79.953 664.46 80.143 662.13 80.673C659.79 81.203 658.43 81.513 655.56 82.273C652.69 83.033 651.12 83.543 647.78 84.473C644.43 85.413 642.61 85.903 638.84 86.923C635.07 87.933 633.04 88.473 628.93 89.563C624.83 90.643 622.63 91.243 618.31 92.353C613.99 93.473 611.7 94.083 607.32 95.123C602.94 96.163 600.63 96.703 596.39 97.553C592.15 98.403 589.97 98.873 586.14 99.373C582.32 99.873 580.41 99.993 577.26 100.073C574.12 100.153 572.67 99.873 570.42 99.793C568.16 99.713 567.31 99.883 565.99 99.673C564.67 99.473 564.3 99.443 563.81 98.763C563.33 98.073 563.34 97.673 563.59 96.263C563.83 94.853 564.27 93.903 565.05 91.683C565.82 89.463 566.23 87.983 567.46 85.153C568.69 82.333 569.51 80.673 571.2 77.543C572.89 74.413 573.97 72.653 575.91 69.503C577.85 66.343 578.9 64.713 580.9 61.783C582.9 58.863 584.05 57.463 585.91 54.863C587.78 52.273 588.85 51.113 590.23 48.823C591.6 46.523 592.17 45.333 592.8 43.403C593.44 41.473 593.52 40.573 593.4 39.153C593.29 37.733 593.09 37.053 592.23 36.313C591.37 35.583 590.18 35.423 589.1 35.493Z" fill="white" stroke="white"/>
<path d="M804.27 118.273C804.54 119.163 805.81 119.393 806.39 118.663C806.96 117.933 807.4 115.513 807.12 114.633C806.85 113.753 805.58 113.513 805 114.243C804.43 114.973 803.99 117.393 804.27 118.273Z" fill="white" stroke="white"/>
</svg>
