<svg xmlns="http://www.w3.org/2000/svg" xmlns:xlink="http://www.w3.org/1999/xlink" width="1080" height="1080" viewBox="0 0 1080 1080">
  <defs>
    <clipPath id="clip-paddle">
      <rect width="1080" height="1080"/>
    </clipPath>
  </defs>
  <g id="paddle" clip-path="url(#clip-paddle)">
    <rect width="1080" height="1080" fill="#fff"/>
    <g id="グループ_2" data-name="グループ 2" transform="translate(669.804 -385.365) rotate(45)">
      <path id="合体_1" data-name="合体 1" d="M59.231,828.488C-5.559,826.3-3.181,698.5,2.846,643.325S41.292,559.2,43.191,533.942C55.646,386.587,59.139,37.583,59.139,37.583s-17.609,4.253-16.864-3.667c.7-7.427,13.52-19.259,22.635-24.825a3.2,3.2,0,0,1,.017-.384C74.639,4.765,90.51-4.767,90.932,2.894S75.174,26.807,75.174,26.807s-3.961,356.543,5.8,504.083c1.437,25.282,22.747,38.734,28.171,94.335,5.405,55.42,14.231,201.167-49.906,203.205,0,.04,0,.061,0,.06Z" transform="translate(680.197 247.147) rotate(3)"/>
      <path id="合体_2" data-name="合体 2" d="M51.78,769.751C-5.923,767.721,1.18,657.689.026,596.544S36.777,487.783,38.468,464.3C49.56,327.309,51.7,34.453,51.7,34.453s-13.665,2.064-13.516-3.64S49.381,11.924,56.394,6.7a.455.455,0,0,1,.007.11C62.766,1.991,73.38-3.535,74.252,2.962c.9,6.689-11.942,22.587-11.942,22.587s-3.415,309.325,5.276,446.493c1.278,23.5,40.65,64.271,38.424,125.388-2.219,60.919,2.911,170.543-54.227,172.27,0,.036,0,.054,0,.054Z" transform="translate(568.489 358.855) rotate(11)"/>
      <path id="合体_3" data-name="合体 3" d="M46.614,698.873C-5.332,697.025,1.063,596.92.023,541.291s33.811-91.183,35.332-112.544C45.342,304.11,45.147,28.712,45.147,28.712s-9.843-.2-9.366-6.384c.458-5.909,7.89-13.185,14.493-16.894q0-.292,0-.292S61.925-4,65.643,2.1s-8.522,22.756-8.522,22.756S54.766,301.24,62.589,426.032C63.74,447.416,97.438,486.495,95.434,542.1c-2,55.423,2.619,155.156-48.818,156.728,0,.033,0,.049,0,.049Z" transform="matrix(0.956, 0.292, -0.292, 0.956, 458.657, 470.975)"/>
    </g>
  </g>
</svg>
