<svg xmlns="http://www.w3.org/2000/svg" id="canvas" viewBox="205.370 291.877 810.207 122.097"><path d="M 234.94,313.49 C 233.84 314.06, 233.53 314.86, 232.77 316.49 C 232.02 318.12, 231.62 319.16, 231.18 321.64 C 230.74 324.13, 230.94 325.74, 230.58 328.89 C 230.22 332.05, 230.03 333.83, 229.38 337.42 C 228.74 341.01, 228.29 342.95, 227.36 346.84 C 226.43 350.73, 225.86 352.81, 224.73 356.87 C 223.59 360.93, 222.94 363.08, 221.67 367.13 C 220.41 371.17, 219.73 373.30, 218.39 377.09 C 217.05 380.89, 216.35 382.82, 214.98 386.11 C 213.62 389.39, 212.66 390.92, 211.57 393.51 C 210.48 396.11, 210.13 397.36, 209.52 399.10 C 208.91 400.84, 208.66 401.32, 208.53 402.23 C 208.40 403.13, 208.78 403.29, 208.87 403.63 C 208.95 403.97, 209.06 403.56, 208.97 403.92 C 208.88 404.27, 208.20 404.94, 208.41 405.40 C 208.62 405.87, 209.13 406.26, 210.01 406.25 C 210.90 406.24, 211.69 406.18, 212.82 405.36 C 213.96 404.53, 214.54 403.94, 215.68 402.12 C 216.82 400.30, 217.46 399.05, 218.50 396.28 C 219.55 393.50, 219.85 391.72, 220.92 388.25 C 221.99 384.77, 222.65 382.81, 223.87 378.92 C 225.09 375.03, 225.76 372.89, 227.03 368.80 C 228.29 364.71, 228.97 362.55, 230.21 358.48 C 231.45 354.40, 232.07 352.32, 233.23 348.43 C 234.40 344.54, 234.95 342.61, 236.04 339.03 C 237.13 335.44, 237.78 333.70, 238.68 330.49 C 239.58 327.28, 240.24 325.64, 240.53 322.96 C 240.81 320.29, 240.58 318.97, 240.12 317.11 C 239.66 315.24, 239.28 314.36, 238.25 313.64 C 237.21 312.91, 236.03 312.92, 234.94 313.49" style="stroke: black; fill: black;"/><path d="M 226.67,311.88 C 227.71 312.38, 228.34 312.11, 229.61 311.84 C 230.89 311.58, 231.48 311.27, 233.04 310.54 C 234.59 309.80, 235.40 309.15, 237.40 308.18 C 239.41 307.20, 240.51 306.65, 243.04 305.68 C 245.58 304.71, 247.04 304.07, 250.10 303.32 C 253.16 302.57, 254.96 302.24, 258.35 301.93 C 261.73 301.61, 263.64 301.55, 267.02 301.76 C 270.40 301.96, 272.22 302.22, 275.25 302.95 C 278.29 303.69, 279.83 304.30, 282.20 305.43 C 284.58 306.57, 285.61 307.26, 287.13 308.62 C 288.66 309.97, 289.27 310.60, 289.82 312.21 C 290.38 313.83, 290.28 314.61, 289.93 316.70 C 289.58 318.78, 289.38 320.00, 288.07 322.65 C 286.75 325.30, 285.81 326.95, 283.35 329.95 C 280.89 332.94, 279.22 334.63, 275.77 337.64 C 272.32 340.65, 270.19 342.23, 266.10 345.00 C 262.02 347.76, 259.64 349.17, 255.36 351.45 C 251.09 353.73, 248.74 354.80, 244.71 356.41 C 240.69 358.02, 238.58 358.60, 235.24 359.49 C 231.91 360.38, 230.23 360.20, 228.04 360.85 C 225.85 361.49, 225.35 362.11, 224.29 362.71 C 223.24 363.31, 223.10 363.31, 222.77 363.85 C 222.44 364.39, 222.27 364.81, 222.64 365.41 C 223.00 366.00, 223.24 366.40, 224.59 366.83 C 225.94 367.25, 226.89 367.84, 229.39 367.53 C 231.89 367.23, 233.61 366.58, 237.09 365.32 C 240.57 364.05, 242.66 363.11, 246.78 361.19 C 250.90 359.28, 253.28 358.17, 257.69 355.76 C 262.10 353.34, 264.54 351.93, 268.84 349.13 C 273.15 346.34, 275.39 344.79, 279.21 341.77 C 283.02 338.75, 284.91 337.17, 287.92 334.02 C 290.94 330.87, 292.38 329.28, 294.28 326.04 C 296.18 322.79, 297.00 321.02, 297.43 317.79 C 297.85 314.55, 297.46 312.74, 296.40 309.86 C 295.35 306.97, 294.37 305.55, 292.15 303.34 C 289.93 301.14, 288.37 300.23, 285.29 298.82 C 282.21 297.41, 280.32 297.03, 276.76 296.28 C 273.19 295.53, 271.23 295.31, 267.45 295.06 C 263.67 294.81, 261.62 294.84, 257.87 295.01 C 254.13 295.18, 252.19 295.46, 248.72 295.93 C 245.25 296.40, 243.57 296.64, 240.52 297.36 C 237.47 298.09, 235.97 298.47, 233.48 299.54 C 230.99 300.61, 229.74 301.39, 228.06 302.72 C 226.38 304.05, 225.81 304.84, 225.08 306.17 C 224.35 307.50, 224.10 308.23, 224.42 309.38 C 224.74 310.52, 225.63 311.39, 226.67 311.88" style="stroke: black; fill: black;"/><path d="M 314.34,366.91 C 314.53 365.74, 314.25 365.06, 313.54 364.13 C 312.82 363.20, 312.15 362.77, 310.77 362.24 C 309.40 361.71, 308.43 361.59, 306.66 361.48 C 304.89 361.37, 303.93 361.45, 301.92 361.70 C 299.91 361.95, 298.79 362.09, 296.60 362.74 C 294.41 363.38, 293.21 363.82, 290.96 364.93 C 288.72 366.04, 287.53 366.75, 285.37 368.28 C 283.20 369.81, 282.06 370.71, 280.13 372.57 C 278.20 374.44, 277.22 375.53, 275.72 377.60 C 274.21 379.67, 273.51 380.79, 272.60 382.90 C 271.70 385.02, 271.28 386.14, 271.21 388.18 C 271.13 390.23, 271.31 391.40, 272.21 393.13 C 273.11 394.85, 273.95 395.78, 275.70 396.79 C 277.45 397.81, 278.68 398.15, 280.97 398.20 C 283.25 398.25, 284.59 397.96, 287.14 397.05 C 289.68 396.14, 291.05 395.34, 293.69 393.66 C 296.33 391.97, 297.64 390.75, 300.35 388.64 C 303.07 386.52, 304.55 385.33, 307.27 383.08 C 310.00 380.83, 311.39 379.54, 313.97 377.40 C 316.55 375.26, 318.17 374.40, 320.18 372.37 C 322.18 370.34, 323.29 369.06, 324.01 367.26 C 324.74 365.46, 324.54 364.35, 323.79 363.38 C 323.04 362.40, 321.92 362.08, 320.27 362.39 C 318.62 362.69, 317.27 363.25, 315.56 364.91 C 313.84 366.57, 312.94 368.16, 311.70 370.67 C 310.46 373.18, 310.03 374.84, 309.35 377.48 C 308.67 380.11, 308.29 381.44, 308.29 383.86 C 308.30 386.28, 308.40 387.55, 309.37 389.57 C 310.33 391.58, 311.17 392.67, 313.12 393.93 C 315.07 395.20, 316.45 395.69, 319.10 395.91 C 321.76 396.13, 323.37 395.93, 326.41 395.03 C 329.44 394.13, 330.97 393.02, 334.27 391.43 C 337.56 389.83, 339.34 388.86, 342.89 387.06 C 346.44 385.25, 348.34 384.21, 352.01 382.40 C 355.68 380.60, 357.62 379.63, 361.22 378.04 C 364.83 376.45, 366.70 375.66, 370.03 374.47 C 373.36 373.27, 375.05 372.86, 377.88 372.05 C 380.72 371.24, 382.09 370.97, 384.21 370.41 C 386.34 369.85, 387.23 369.64, 388.52 369.25 C 389.81 368.86, 390.22 368.88, 390.67 368.48 C 391.12 368.08, 390.98 367.85, 390.79 367.25 C 390.60 366.65, 390.35 365.99, 389.72 365.48 C 389.08 364.96, 388.65 364.61, 387.62 364.67 C 386.60 364.74, 385.95 365.20, 384.60 365.81 C 383.25 366.41, 382.49 366.85, 380.87 367.69 C 379.25 368.52, 378.28 368.93, 376.53 369.98 C 374.77 371.02, 373.83 371.62, 372.11 372.90 C 370.40 374.18, 369.47 374.86, 367.94 376.38 C 366.42 377.90, 365.63 378.77, 364.48 380.49 C 363.34 382.20, 362.75 383.12, 362.20 384.97 C 361.65 386.81, 361.44 387.89, 361.72 389.71 C 362.00 391.54, 362.41 392.64, 363.61 394.09 C 364.81 395.53, 365.81 396.29, 367.74 396.95 C 369.66 397.60, 370.91 397.68, 373.25 397.36 C 375.59 397.05, 376.92 396.63, 379.43 395.36 C 381.95 394.10, 383.20 393.06, 385.83 391.02 C 388.45 388.98, 389.78 387.70, 392.55 385.18 C 395.32 382.66, 396.79 381.25, 399.67 378.41 C 402.54 375.56, 404.03 373.99, 406.91 370.95 C 409.79 367.92, 411.28 366.29, 414.07 363.21 C 416.86 360.13, 418.25 358.51, 420.86 355.54 C 423.46 352.57, 424.73 351.06, 427.08 348.36 C 429.43 345.66, 430.63 344.40, 432.59 342.04 C 434.55 339.67, 435.45 338.52, 436.88 336.52 C 438.31 334.52, 439.14 333.72, 439.72 332.03 C 440.30 330.35, 440.43 329.31, 439.78 328.10 C 439.13 326.88, 438.04 326.10, 436.48 325.98 C 434.93 325.86, 433.71 326.12, 432.02 327.48 C 430.33 328.84, 429.55 330.11, 428.03 332.78 C 426.52 335.46, 426.08 337.50, 424.44 340.86 C 422.81 344.22, 421.70 346.04, 419.87 349.59 C 418.03 353.15, 417.00 355.07, 415.25 358.63 C 413.51 362.20, 412.57 364.03, 411.13 367.41 C 409.69 370.79, 408.82 372.45, 408.06 375.55 C 407.31 378.64, 407.11 380.19, 407.37 382.89 C 407.62 385.59, 408.03 386.96, 409.34 389.04 C 410.64 391.12, 411.68 392.09, 413.88 393.29 C 416.08 394.48, 417.53 394.89, 420.34 395.02 C 423.14 395.16, 424.81 394.86, 427.92 393.97 C 431.02 393.07, 432.58 392.07, 435.85 390.55 C 439.12 389.02, 440.85 388.09, 444.28 386.36 C 447.70 384.63, 449.53 383.63, 452.98 381.90 C 456.43 380.16, 458.22 379.22, 461.51 377.67 C 464.80 376.13, 466.48 375.39, 469.43 374.18 C 472.39 372.96, 473.89 372.52, 476.29 371.58 C 478.69 370.64, 479.71 370.13, 481.44 369.46 C 483.18 368.79, 483.93 368.65, 484.96 368.24 C 485.99 367.83, 486.27 367.85, 486.59 367.41 C 486.90 366.97, 486.76 366.70, 486.52 366.05 C 486.28 365.40, 485.93 364.71, 485.37 364.16 C 484.81 363.61, 484.50 363.34, 483.73 363.30 C 482.97 363.26, 482.59 363.53, 481.54 363.97 C 480.49 364.41, 479.79 364.81, 478.49 365.51 C 477.19 366.22, 476.46 366.65, 475.02 367.50 C 473.58 368.34, 472.80 368.73, 471.30 369.75 C 469.80 370.78, 468.96 371.35, 467.52 372.63 C 466.09 373.90, 465.38 374.63, 464.14 376.13 C 462.90 377.62, 462.24 378.42, 461.32 380.11 C 460.39 381.80, 459.93 382.75, 459.50 384.57 C 459.07 386.39, 458.92 387.41, 459.17 389.22 C 459.42 391.02, 459.73 392.06, 460.75 393.58 C 461.77 395.11, 462.58 395.92, 464.28 396.85 C 465.97 397.79, 467.07 398.11, 469.20 398.25 C 471.34 398.39, 472.56 398.21, 474.95 397.55 C 477.33 396.88, 478.62 396.34, 481.11 394.93 C 483.61 393.51, 484.85 392.49, 487.42 390.46 C 489.99 388.42, 491.31 387.17, 493.95 384.75 C 496.59 382.33, 497.97 381.01, 500.63 378.37 C 503.30 375.73, 504.67 374.30, 507.27 371.54 C 509.87 368.78, 511.18 367.33, 513.63 364.58 C 516.09 361.83, 517.28 360.41, 519.53 357.79 C 521.78 355.18, 522.90 353.90, 524.87 351.49 C 526.84 349.08, 527.84 347.92, 529.40 345.74 C 530.95 343.56, 531.57 342.44, 532.63 340.58 C 533.69 338.72, 534.40 338.02, 534.68 336.44 C 534.96 334.87, 534.90 333.84, 534.04 332.72 C 533.17 331.60, 531.97 330.88, 530.35 330.83 C 528.73 330.78, 527.65 331.14, 525.95 332.46 C 524.26 333.78, 523.38 334.91, 521.87 337.43 C 520.36 339.95, 519.95 341.89, 518.39 345.07 C 516.83 348.25, 515.81 349.97, 514.07 353.34 C 512.32 356.71, 511.31 358.51, 509.66 361.90 C 508.00 365.29, 507.12 367.04, 505.80 370.31 C 504.47 373.57, 503.62 375.21, 503.03 378.24 C 502.45 381.27, 502.42 382.84, 502.86 385.47 C 503.30 388.10, 503.76 389.42, 505.21 391.39 C 506.66 393.35, 507.76 394.29, 510.09 395.30 C 512.43 396.31, 513.99 396.64, 516.88 396.44 C 519.77 396.24, 521.38 395.62, 524.55 394.31 C 527.72 393.00, 529.32 391.87, 532.72 389.89 C 536.13 387.90, 537.96 386.71, 541.56 384.39 C 545.15 382.06, 547.10 380.75, 550.72 378.26 C 554.33 375.77, 556.23 374.41, 559.63 371.94 C 563.03 369.47, 564.72 368.19, 567.71 365.91 C 570.69 363.63, 572.27 362.67, 574.56 360.53 C 576.85 358.40, 577.81 357.29, 579.15 355.24 C 580.49 353.19, 580.94 352.19, 581.25 350.28 C 581.56 348.37, 581.44 347.33, 580.70 345.70 C 579.97 344.08, 579.18 343.13, 577.57 342.16 C 575.97 341.20, 574.75 340.88, 572.66 340.86 C 570.57 340.84, 569.37 341.23, 567.13 342.07 C 564.88 342.92, 563.70 343.62, 561.44 345.09 C 559.17 346.56, 557.96 347.47, 555.78 349.41 C 553.61 351.34, 552.48 352.48, 550.54 354.76 C 548.59 357.04, 547.63 358.30, 546.06 360.81 C 544.49 363.31, 543.73 364.66, 542.70 367.29 C 541.67 369.92, 541.25 371.33, 540.93 373.94 C 540.60 376.56, 540.60 377.92, 541.08 380.35 C 541.56 382.77, 542.02 384.04, 543.34 386.08 C 544.65 388.12, 545.58 389.10, 547.64 390.54 C 549.69 391.97, 550.98 392.56, 553.61 393.26 C 556.23 393.96, 557.79 394.14, 560.76 394.04 C 563.74 393.93, 565.34 393.53, 568.49 392.73 C 571.64 391.94, 573.28 391.27, 576.49 390.05 C 579.70 388.83, 581.37 388.08, 584.53 386.64 C 587.70 385.21, 589.33 384.35, 592.32 382.85 C 595.30 381.36, 596.84 380.64, 599.47 379.17 C 602.09 377.71, 603.32 376.90, 605.45 375.53 C 607.58 374.16, 608.69 373.58, 610.11 372.33 C 611.52 371.07, 612.24 370.36, 612.53 369.27 C 612.81 368.18, 612.35 367.44, 611.53 366.88 C 610.71 366.33, 609.74 366.11, 608.42 366.49 C 607.11 366.88, 606.25 367.44, 604.95 368.79 C 603.65 370.14, 603.08 371.36, 601.93 373.23 C 600.77 375.11, 600.16 376.36, 599.20 378.15 C 598.23 379.94, 597.51 380.71, 597.11 382.17 C 596.71 383.64, 596.65 384.39, 597.20 385.47 C 597.76 386.55, 598.62 387.18, 599.87 387.58 C 601.12 387.98, 602.15 387.98, 603.46 387.47 C 604.77 386.97, 605.35 386.35, 606.41 385.05 C 607.47 383.74, 607.72 382.57, 608.77 380.94 C 609.82 379.32, 610.45 378.44, 611.67 376.93 C 612.89 375.41, 613.60 374.65, 614.88 373.37 C 616.16 372.09, 616.86 371.47, 618.09 370.51 C 619.32 369.54, 619.91 369.13, 621.02 368.53 C 622.12 367.94, 622.58 367.75, 623.61 367.54 C 624.63 367.33, 625.08 367.39, 626.14 367.50 C 627.20 367.61, 627.69 367.78, 628.91 368.09 C 630.14 368.41, 630.79 368.67, 632.25 369.06 C 633.71 369.45, 634.52 369.69, 636.23 370.03 C 637.93 370.38, 638.86 370.56, 640.77 370.79 C 642.67 371.02, 643.68 371.13, 645.76 371.19 C 647.84 371.25, 648.98 371.23, 651.16 371.08 C 653.35 370.94, 654.47 370.78, 656.67 370.48 C 658.88 370.17, 660.03 369.96, 662.18 369.56 C 664.34 369.17, 665.45 368.93, 667.46 368.51 C 669.47 368.09, 670.48 367.82, 672.25 367.47 C 674.01 367.12, 674.86 366.96, 676.29 366.75 C 677.72 366.54, 678.39 366.48, 679.41 366.41 C 680.44 366.35, 680.85 366.38, 681.42 366.43 C 681.98 366.47, 682.09 366.52, 682.24 366.63 C 682.39 366.75, 682.27 366.79, 682.17 366.99 C 682.07 367.20, 681.97 367.27, 681.74 367.66 C 681.52 368.05, 681.43 368.28, 681.05 368.92 C 680.66 369.55, 680.49 369.99, 679.84 370.83 C 679.19 371.68, 678.79 372.18, 677.79 373.13 C 676.79 374.08, 676.18 374.63, 674.84 375.57 C 673.51 376.52, 672.74 377.00, 671.11 377.85 C 669.49 378.70, 668.53 379.10, 666.71 379.81 C 664.89 380.53, 663.89 380.90, 662.03 381.42 C 660.16 381.94, 659.16 382.05, 657.40 382.43 C 655.64 382.80, 654.58 382.94, 653.22 383.30 C 651.85 383.65, 651.37 383.76, 650.59 384.20 C 649.80 384.64, 649.66 385.03, 649.30 385.48 C 648.94 385.93, 649.00 386.02, 648.78 386.45 C 648.56 386.87, 648.23 387.09, 648.21 387.61 C 648.19 388.13, 648.19 388.46, 648.68 389.06 C 649.17 389.66, 649.59 390.18, 650.67 390.60 C 651.74 391.01, 652.40 391.10, 654.05 391.13 C 655.69 391.17, 656.86 391.08, 658.90 390.77 C 660.94 390.46, 662.07 390.16, 664.25 389.59 C 666.42 389.01, 667.59 388.69, 669.76 387.91 C 671.93 387.12, 673.07 386.66, 675.10 385.64 C 677.12 384.62, 678.13 384.02, 679.89 382.81 C 681.66 381.59, 682.48 380.91, 683.90 379.55 C 685.32 378.20, 685.97 377.50, 686.99 376.04 C 688.01 374.58, 688.49 373.79, 689.01 372.26 C 689.54 370.72, 689.69 369.87, 689.63 368.36 C 689.58 366.85, 689.36 366.03, 688.73 364.72 C 688.10 363.40, 687.57 362.74, 686.50 361.78 C 685.43 360.82, 684.74 360.46, 683.39 359.93 C 682.04 359.39, 681.31 359.28, 679.75 359.10 C 678.19 358.91, 677.36 358.93, 675.59 359.01 C 673.82 359.09, 672.85 359.22, 670.91 359.49 C 668.98 359.76, 667.94 359.99, 665.91 360.34 C 663.88 360.69, 662.82 360.89, 660.75 361.23 C 658.67 361.56, 657.57 361.76, 655.54 362.02 C 653.51 362.28, 652.52 362.41, 650.61 362.54 C 648.69 362.66, 647.72 362.67, 645.95 362.64 C 644.17 362.62, 643.35 362.58, 641.74 362.41 C 640.12 362.23, 639.39 362.05, 637.87 361.76 C 636.36 361.47, 635.67 361.25, 634.17 360.94 C 632.68 360.63, 631.94 360.40, 630.38 360.19 C 628.82 359.99, 628.01 359.89, 626.36 359.92 C 624.71 359.95, 623.84 360.00, 622.13 360.35 C 620.42 360.70, 619.56 360.97, 617.83 361.69 C 616.10 362.41, 615.21 362.87, 613.50 363.97 C 611.79 365.07, 610.93 365.79, 609.27 367.17 C 607.61 368.55, 606.80 369.36, 605.19 370.89 C 603.58 372.41, 602.74 373.25, 601.22 374.79 C 599.70 376.32, 598.62 377.01, 597.59 378.54 C 596.55 380.08, 596.11 380.95, 596.06 382.46 C 596.01 383.96, 596.47 384.98, 597.32 386.05 C 598.17 387.12, 599.07 387.65, 600.31 387.81 C 601.56 387.97, 602.26 387.70, 603.54 386.85 C 604.83 385.99, 605.36 385.03, 606.74 383.52 C 608.13 382.01, 609.05 381.03, 610.46 379.30 C 611.87 377.57, 612.92 376.68, 613.80 374.86 C 614.67 373.03, 614.96 371.89, 614.85 370.18 C 614.74 368.47, 614.24 367.42, 613.23 366.31 C 612.22 365.19, 611.28 364.68, 609.80 364.62 C 608.33 364.57, 607.54 365.16, 605.84 366.03 C 604.13 366.90, 603.31 367.67, 601.26 368.96 C 599.21 370.25, 598.04 371.00, 595.58 372.49 C 593.12 373.98, 591.76 374.90, 588.97 376.42 C 586.17 377.93, 584.59 378.75, 581.60 380.06 C 578.61 381.36, 577.00 382.00, 574.02 382.92 C 571.05 383.84, 569.44 384.19, 566.72 384.67 C 564.00 385.16, 562.69 385.25, 560.42 385.36 C 558.15 385.46, 557.11 385.43, 555.37 385.18 C 553.63 384.92, 552.91 384.70, 551.72 384.08 C 550.53 383.47, 550.10 383.09, 549.42 382.10 C 548.74 381.10, 548.51 380.48, 548.34 379.09 C 548.16 377.70, 548.17 376.88, 548.53 375.15 C 548.89 373.42, 549.23 372.39, 550.14 370.44 C 551.05 368.50, 551.70 367.40, 553.08 365.42 C 554.46 363.44, 555.34 362.38, 557.05 360.54 C 558.76 358.69, 559.78 357.74, 561.63 356.20 C 563.49 354.65, 564.53 353.94, 566.33 352.84 C 568.13 351.73, 569.12 351.37, 570.63 350.68 C 572.15 350.00, 572.88 349.88, 573.89 349.41 C 574.91 348.95, 575.23 348.69, 575.72 348.35 C 576.20 348.01, 576.28 347.68, 576.30 347.71 C 576.32 347.74, 576.33 347.82, 575.80 348.50 C 575.27 349.17, 574.88 349.70, 573.63 351.08 C 572.38 352.45, 571.52 353.37, 569.55 355.39 C 567.58 357.40, 566.44 358.76, 563.77 361.16 C 561.11 363.55, 559.46 364.88, 556.22 367.36 C 552.97 369.84, 551.09 371.19, 547.53 373.57 C 543.98 375.95, 542.01 377.20, 538.42 379.25 C 534.84 381.30, 532.94 382.35, 529.60 383.84 C 526.27 385.33, 524.51 385.84, 521.75 386.71 C 518.99 387.58, 517.75 387.77, 515.82 388.19 C 513.89 388.62, 513.22 388.90, 512.11 388.84 C 510.99 388.77, 510.71 388.67, 510.23 387.88 C 509.76 387.09, 509.64 386.51, 509.71 384.88 C 509.79 383.26, 510.08 382.20, 510.59 379.76 C 511.10 377.33, 511.27 375.70, 512.27 372.71 C 513.27 369.72, 514.04 367.99, 515.59 364.79 C 517.15 361.59, 518.15 359.82, 520.05 356.70 C 521.95 353.59, 523.00 351.91, 525.08 349.22 C 527.16 346.52, 528.78 345.45, 530.47 343.24 C 532.16 341.02, 532.86 339.94, 533.51 338.15 C 534.15 336.36, 534.15 335.47, 533.69 334.29 C 533.24 333.11, 532.27 332.45, 531.25 332.25 C 530.22 332.05, 529.57 332.43, 528.59 333.30 C 527.60 334.18, 527.45 335.04, 526.34 336.63 C 525.23 338.22, 524.48 339.17, 523.03 341.26 C 521.58 343.35, 520.81 344.62, 519.07 347.08 C 517.34 349.54, 516.39 350.91, 514.34 353.56 C 512.29 356.22, 511.15 357.64, 508.81 360.35 C 506.47 363.06, 505.20 364.48, 502.65 367.13 C 500.10 369.77, 498.73 371.14, 496.06 373.56 C 493.39 375.98, 491.99 377.19, 489.32 379.23 C 486.65 381.27, 485.21 382.22, 482.70 383.76 C 480.20 385.30, 478.90 385.85, 476.79 386.91 C 474.69 387.96, 473.75 388.43, 472.18 389.05 C 470.61 389.68, 469.93 389.78, 468.93 390.02 C 467.94 390.27, 467.69 390.30, 467.20 390.26 C 466.72 390.23, 466.67 390.16, 466.51 389.86 C 466.36 389.57, 466.32 389.39, 466.43 388.79 C 466.54 388.19, 466.66 387.76, 467.05 386.86 C 467.45 385.97, 467.71 385.37, 468.41 384.32 C 469.11 383.27, 469.59 382.66, 470.53 381.61 C 471.48 380.56, 472.02 380.00, 473.13 379.06 C 474.23 378.13, 474.85 377.71, 476.07 376.93 C 477.28 376.16, 477.96 375.80, 479.19 375.20 C 480.43 374.60, 481.02 374.36, 482.25 373.93 C 483.48 373.50, 484.18 373.55, 485.34 373.07 C 486.50 372.59, 487.22 372.40, 488.05 371.53 C 488.88 370.66, 489.22 369.98, 489.47 368.70 C 489.72 367.42, 489.74 366.36, 489.30 365.13 C 488.87 363.90, 488.38 363.21, 487.31 362.56 C 486.23 361.92, 485.52 361.88, 483.93 361.90 C 482.33 361.91, 481.43 362.13, 479.34 362.64 C 477.24 363.16, 476.00 363.44, 473.44 364.49 C 470.89 365.53, 469.50 366.39, 466.55 367.87 C 463.60 369.35, 461.97 370.24, 458.69 371.91 C 455.41 373.58, 453.61 374.53, 450.16 376.23 C 446.71 377.92, 444.86 378.87, 441.45 380.36 C 438.04 381.85, 436.25 382.63, 433.10 383.69 C 429.95 384.74, 428.32 385.02, 425.71 385.64 C 423.10 386.25, 421.91 386.48, 420.06 386.77 C 418.20 387.07, 417.54 387.28, 416.45 387.11 C 415.36 386.94, 415.06 386.81, 414.62 385.92 C 414.17 385.04, 414.10 384.42, 414.22 382.69 C 414.35 380.95, 414.64 379.84, 415.24 377.26 C 415.84 374.68, 416.11 372.97, 417.24 369.80 C 418.36 366.62, 419.20 364.78, 420.86 361.37 C 422.52 357.97, 423.54 356.08, 425.54 352.75 C 427.53 349.43, 428.66 347.66, 430.84 344.76 C 433.02 341.85, 434.71 340.60, 436.45 338.21 C 438.20 335.83, 438.96 334.73, 439.58 332.84 C 440.19 330.94, 440.08 329.97, 439.53 328.75 C 438.98 327.53, 437.98 326.83, 436.82 326.72 C 435.66 326.60, 434.94 327.10, 433.74 328.18 C 432.54 329.27, 432.18 330.26, 430.81 332.15 C 429.43 334.04, 428.61 335.21, 426.88 337.66 C 425.15 340.10, 424.25 341.56, 422.14 344.38 C 420.04 347.19, 418.83 348.72, 416.36 351.71 C 413.89 354.71, 412.53 356.32, 409.80 359.35 C 407.07 362.39, 405.58 363.98, 402.70 366.88 C 399.82 369.77, 398.31 371.27, 395.40 373.85 C 392.48 376.42, 390.96 377.69, 388.12 379.76 C 385.28 381.82, 383.74 382.69, 381.19 384.16 C 378.63 385.62, 377.34 386.13, 375.35 387.07 C 373.37 388.02, 372.54 388.35, 371.26 388.88 C 369.98 389.41, 369.57 389.50, 368.96 389.72 C 368.35 389.95, 368.32 390.05, 368.21 390.01 C 368.09 389.96, 368.16 389.94, 368.37 389.52 C 368.59 389.09, 368.73 388.72, 369.28 387.89 C 369.84 387.05, 370.23 386.42, 371.12 385.34 C 372.02 384.26, 372.58 383.57, 373.78 382.48 C 374.97 381.39, 375.71 380.85, 377.12 379.90 C 378.52 378.95, 379.31 378.49, 380.82 377.72 C 382.33 376.96, 383.16 376.66, 384.68 376.07 C 386.20 375.48, 387.02 375.33, 388.40 374.78 C 389.78 374.22, 390.51 374.19, 391.58 373.30 C 392.64 372.41, 393.29 371.72, 393.72 370.33 C 394.15 368.93, 394.17 367.65, 393.74 366.31 C 393.32 364.98, 392.77 364.35, 391.59 363.64 C 390.42 362.93, 389.67 362.83, 387.87 362.76 C 386.06 362.69, 385.00 362.77, 382.57 363.27 C 380.13 363.76, 378.66 364.17, 375.68 365.23 C 372.71 366.30, 371.07 367.12, 367.69 368.59 C 364.31 370.06, 362.43 370.91, 358.77 372.59 C 355.12 374.27, 353.14 375.25, 349.42 376.97 C 345.70 378.70, 343.75 379.69, 340.17 381.20 C 336.58 382.71, 334.72 383.51, 331.49 384.54 C 328.26 385.57, 326.56 385.73, 324.03 386.36 C 321.50 386.99, 320.46 387.33, 318.85 387.68 C 317.25 388.02, 316.76 388.18, 316.00 388.11 C 315.24 388.03, 315.13 387.97, 315.04 387.32 C 314.95 386.68, 315.05 386.17, 315.57 384.88 C 316.09 383.59, 316.52 382.65, 317.65 380.89 C 318.78 379.12, 319.88 378.08, 321.21 376.04 C 322.54 374.00, 323.55 372.75, 324.29 370.68 C 325.04 368.61, 325.19 367.36, 324.94 365.71 C 324.69 364.06, 324.21 363.06, 323.04 362.42 C 321.86 361.78, 320.82 361.73, 319.07 362.52 C 317.32 363.30, 316.27 364.44, 314.27 366.33 C 312.28 368.21, 311.40 369.71, 309.09 371.93 C 306.79 374.16, 305.37 375.37, 302.73 377.45 C 300.09 379.52, 298.60 380.61, 295.90 382.30 C 293.20 383.99, 291.67 384.66, 289.24 385.89 C 286.81 387.11, 285.61 387.60, 283.75 388.42 C 281.90 389.23, 281.10 389.50, 279.95 389.97 C 278.81 390.45, 278.50 390.63, 278.02 390.79 C 277.55 390.94, 277.57 391.03, 277.58 390.74 C 277.58 390.45, 277.65 390.18, 278.06 389.34 C 278.46 388.49, 278.76 387.82, 279.62 386.50 C 280.48 385.19, 281.06 384.29, 282.35 382.77 C 283.64 381.24, 284.47 380.34, 286.07 378.88 C 287.67 377.41, 288.61 376.65, 290.37 375.45 C 292.12 374.24, 293.09 373.70, 294.84 372.85 C 296.58 372.01, 297.49 371.71, 299.11 371.23 C 300.73 370.75, 301.59 370.60, 302.95 370.46 C 304.32 370.31, 304.87 370.38, 305.94 370.49 C 307.02 370.61, 307.43 370.94, 308.33 371.04 C 309.22 371.14, 309.56 371.22, 310.42 371.00 C 311.27 370.78, 311.81 370.76, 312.59 369.94 C 313.38 369.12, 314.15 368.07, 314.34 366.91" style="stroke: black; fill: black;"/><path d="M 794.47,327.37 C 793.40 327.45, 793.18 327.81, 792.25 328.57 C 791.31 329.33, 790.83 329.70, 789.79 331.18 C 788.76 332.67, 788.20 333.74, 787.07 336.00 C 785.94 338.25, 785.53 339.66, 784.15 342.44 C 782.78 345.23, 781.90 346.80, 780.19 349.91 C 778.47 353.01, 777.44 354.70, 775.56 357.96 C 773.68 361.22, 772.59 362.99, 770.77 366.21 C 768.94 369.42, 767.95 371.02, 766.44 374.03 C 764.92 377.04, 764.03 378.47, 763.21 381.27 C 762.39 384.07, 762.15 385.51, 762.34 388.03 C 762.52 390.55, 762.87 391.85, 764.12 393.87 C 765.36 395.89, 766.36 396.85, 768.57 398.14 C 770.77 399.43, 772.20 400.02, 775.15 400.32 C 778.11 400.62, 779.84 400.18, 783.35 399.65 C 786.86 399.11, 788.75 398.56, 792.69 397.64 C 796.62 396.72, 798.78 396.12, 803.04 395.04 C 807.30 393.95, 809.60 393.36, 813.99 392.22 C 818.38 391.08, 820.66 390.45, 824.99 389.35 C 829.32 388.24, 831.51 387.67, 835.63 386.68 C 839.75 385.69, 841.78 385.22, 845.57 384.39 C 849.36 383.56, 851.20 383.16, 854.58 382.53 C 857.97 381.89, 859.59 381.74, 862.51 381.20 C 865.43 380.67, 866.78 380.41, 869.19 379.85 C 871.59 379.28, 872.68 379.03, 874.55 378.37 C 876.41 377.71, 877.21 377.46, 878.51 376.55 C 879.81 375.63, 880.37 375.13, 881.04 373.80 C 881.71 372.47, 881.97 371.46, 881.86 369.91 C 881.75 368.36, 881.43 367.35, 880.50 366.04 C 879.56 364.73, 878.80 364.17, 877.19 363.36 C 875.58 362.54, 874.52 362.32, 872.46 361.97 C 870.40 361.62, 869.26 361.52, 866.89 361.61 C 864.52 361.70, 863.20 361.83, 860.62 362.42 C 858.03 363.02, 856.64 363.43, 853.97 364.59 C 851.29 365.76, 849.86 366.53, 847.23 368.25 C 844.60 369.96, 843.26 371.08, 840.82 373.17 C 838.38 375.26, 837.06 376.37, 835.03 378.69 C 833.00 381.02, 832.06 382.35, 830.68 384.80 C 829.30 387.25, 828.71 388.55, 828.15 390.95 C 827.59 393.34, 827.48 394.60, 827.88 396.75 C 828.28 398.91, 828.78 400.09, 830.17 401.72 C 831.55 403.36, 832.65 404.15, 834.80 404.93 C 836.95 405.72, 838.35 405.84, 840.94 405.64 C 843.52 405.45, 845.00 405.05, 847.73 403.95 C 850.47 402.86, 851.85 401.88, 854.63 400.16 C 857.41 398.44, 858.88 397.35, 861.65 395.37 C 864.41 393.39, 865.81 392.24, 868.44 390.28 C 871.07 388.31, 872.68 387.45, 874.81 385.55 C 876.94 383.65, 878.14 382.46, 879.08 380.78 C 880.03 379.10, 880.00 378.11, 879.53 377.15 C 879.06 376.18, 878.14 375.80, 876.74 375.96 C 875.35 376.13, 874.03 376.55, 872.55 377.96 C 871.07 379.37, 870.26 380.76, 869.35 383.02 C 868.43 385.28, 868.24 386.83, 867.98 389.25 C 867.71 391.67, 867.53 392.95, 868.02 395.10 C 868.52 397.24, 869.00 398.44, 870.46 399.97 C 871.91 401.51, 873.04 402.25, 875.29 402.79 C 877.53 403.32, 879.01 403.38, 881.68 402.65 C 884.35 401.91, 885.75 400.98, 888.65 399.11 C 891.55 397.24, 892.99 395.86, 896.18 393.29 C 899.38 390.71, 901.14 389.25, 904.63 386.26 C 908.13 383.26, 910.01 381.58, 913.65 378.31 C 917.29 375.04, 919.22 373.25, 922.82 369.88 C 926.41 366.51, 928.24 364.73, 931.63 361.46 C 935.01 358.19, 936.73 356.51, 939.75 353.53 C 942.76 350.54, 944.22 349.10, 946.70 346.52 C 949.18 343.94, 950.53 342.88, 952.14 340.61 C 953.75 338.35, 954.32 337.21, 954.76 335.19 C 955.20 333.17, 955.13 332.09, 954.33 330.53 C 953.54 328.96, 952.59 328.03, 950.76 327.37 C 948.93 326.71, 947.54 326.57, 945.18 327.23 C 942.82 327.90, 941.44 328.70, 938.97 330.70 C 936.50 332.69, 935.42 334.35, 932.83 337.22 C 930.24 340.09, 928.76 341.71, 926.04 345.06 C 923.33 348.41, 921.84 350.27, 919.26 353.97 C 916.68 357.68, 915.35 359.69, 913.15 363.59 C 910.94 367.48, 909.90 369.60, 908.25 373.46 C 906.61 377.31, 905.83 379.25, 904.92 382.88 C 904.01 386.51, 903.51 388.38, 903.69 391.60 C 903.87 394.83, 904.46 396.45, 905.81 399.01 C 907.17 401.58, 908.20 402.76, 910.46 404.43 C 912.72 406.09, 914.24 406.71, 917.09 407.33 C 919.95 407.95, 921.67 407.93, 924.74 407.52 C 927.82 407.11, 929.51 406.47, 932.47 405.29 C 935.44 404.10, 937.02 403.26, 939.58 401.58 C 942.14 399.90, 943.38 398.88, 945.28 396.87 C 947.18 394.87, 948.10 393.76, 949.08 391.57 C 950.06 389.38, 950.33 388.08, 950.17 385.91 C 950.00 383.74, 949.53 382.47, 948.26 380.71 C 946.99 378.94, 945.87 378.03, 943.81 377.08 C 941.75 376.14, 940.26 375.95, 937.98 375.97 C 935.71 376.00, 934.44 376.37, 932.43 377.20 C 930.43 378.02, 929.32 378.61, 927.97 380.10 C 926.62 381.59, 925.99 382.73, 925.67 384.64 C 925.36 386.56, 925.52 387.86, 926.39 389.69 C 927.25 391.52, 928.08 392.49, 930.00 393.79 C 931.92 395.09, 933.24 395.64, 935.99 396.20 C 938.74 396.75, 940.43 396.62, 943.76 396.55 C 947.10 396.48, 948.94 396.21, 952.66 395.87 C 956.38 395.52, 958.44 395.27, 962.37 394.84 C 966.29 394.40, 968.41 394.14, 972.29 393.68 C 976.17 393.21, 978.18 392.90, 981.78 392.52 C 985.39 392.14, 987.19 392.12, 990.31 391.77 C 993.44 391.43, 995.16 391.39, 997.41 390.80 C 999.67 390.21, 1000.36 389.61, 1001.60 388.83 C 1002.83 388.05, 1003.28 387.69, 1003.59 386.91 C 1003.89 386.13, 1003.70 385.50, 1003.12 384.93 C 1002.54 384.35, 1002.06 384.33, 1000.69 384.04 C 999.32 383.76, 998.57 383.39, 996.29 383.49 C 994.01 383.60, 992.37 384.04, 989.30 384.57 C 986.22 385.10, 984.47 385.56, 980.92 386.15 C 977.37 386.74, 975.37 387.04, 971.55 387.50 C 967.72 387.95, 965.63 388.19, 961.80 388.44 C 957.96 388.70, 955.91 388.85, 952.38 388.79 C 948.86 388.73, 947.09 388.52, 944.16 388.16 C 941.23 387.79, 939.87 387.35, 937.75 386.97 C 935.63 386.59, 934.79 386.44, 933.55 386.25 C 932.32 386.07, 932.02 386.05, 931.59 386.04 C 931.16 386.02, 931.19 386.17, 931.38 386.16 C 931.58 386.16, 931.83 386.14, 932.57 385.99 C 933.32 385.84, 933.97 385.61, 935.11 385.41 C 936.24 385.22, 936.99 385.10, 938.23 385.02 C 939.47 384.95, 940.26 385.01, 941.30 385.04 C 942.35 385.07, 942.90 384.97, 943.45 385.17 C 944.01 385.37, 944.18 385.47, 944.07 386.04 C 943.97 386.61, 943.79 387.03, 942.93 388.02 C 942.08 389.01, 941.37 389.73, 939.79 390.98 C 938.20 392.23, 937.11 393.02, 935.00 394.26 C 932.88 395.51, 931.56 396.26, 929.22 397.20 C 926.88 398.15, 925.51 398.53, 923.31 399.00 C 921.12 399.48, 920.03 399.65, 918.23 399.59 C 916.43 399.52, 915.61 399.40, 914.33 398.68 C 913.04 397.97, 912.51 397.50, 911.82 396.00 C 911.14 394.50, 911.04 393.55, 910.90 391.19 C 910.75 388.83, 910.57 387.32, 911.10 384.21 C 911.63 381.09, 912.20 379.19, 913.57 375.61 C 914.94 372.02, 915.89 369.95, 917.94 366.28 C 919.99 362.61, 921.28 360.68, 923.82 357.25 C 926.37 353.81, 927.87 352.05, 930.66 349.11 C 933.46 346.16, 935.03 344.68, 937.81 342.51 C 940.58 340.34, 942.30 339.73, 944.54 338.26 C 946.78 336.79, 947.73 336.24, 949.00 335.16 C 950.26 334.07, 950.53 333.54, 950.87 332.84 C 951.21 332.14, 951.02 331.67, 950.71 331.65 C 950.39 331.64, 950.15 331.80, 949.27 332.75 C 948.39 333.69, 947.76 334.43, 946.31 336.37 C 944.85 338.31, 944.10 339.76, 942.01 342.45 C 939.91 345.14, 938.62 346.72, 935.84 349.81 C 933.07 352.90, 931.39 354.61, 928.12 357.90 C 924.84 361.20, 923.04 362.98, 919.47 366.30 C 915.91 369.61, 913.96 371.36, 910.29 374.47 C 906.62 377.59, 904.70 379.20, 901.12 381.89 C 897.54 384.58, 895.70 385.91, 892.40 387.92 C 889.10 389.93, 887.34 390.68, 884.63 391.96 C 881.92 393.24, 880.65 393.54, 878.85 394.32 C 877.06 395.10, 876.51 395.48, 875.66 395.85 C 874.82 396.21, 874.76 396.36, 874.62 396.15 C 874.48 395.95, 874.57 395.70, 874.96 394.84 C 875.34 393.98, 875.63 393.27, 876.53 391.86 C 877.44 390.45, 878.47 389.60, 879.48 387.79 C 880.48 385.98, 881.20 384.78, 881.54 382.82 C 881.88 380.87, 881.79 379.58, 881.19 378.01 C 880.59 376.44, 879.95 375.52, 878.55 374.98 C 877.15 374.43, 876.08 374.46, 874.20 375.29 C 872.32 376.11, 871.26 377.31, 869.17 379.11 C 867.07 380.92, 866.10 382.32, 863.73 384.30 C 861.36 386.28, 859.95 387.32, 857.31 389.03 C 854.68 390.74, 853.14 391.58, 850.56 392.86 C 847.97 394.14, 846.57 394.59, 844.38 395.43 C 842.19 396.28, 841.19 396.62, 839.60 397.08 C 838.00 397.54, 837.37 397.64, 836.41 397.73 C 835.45 397.81, 835.20 397.85, 834.80 397.52 C 834.39 397.18, 834.30 396.93, 834.37 396.05 C 834.45 395.18, 834.54 394.54, 835.17 393.13 C 835.80 391.72, 836.28 390.77, 837.50 388.99 C 838.72 387.21, 839.55 386.14, 841.28 384.23 C 843.00 382.32, 844.03 381.20, 846.13 379.45 C 848.23 377.70, 849.53 376.85, 851.78 375.49 C 854.04 374.12, 855.26 373.55, 857.42 372.64 C 859.58 371.73, 860.63 371.38, 862.57 370.94 C 864.51 370.50, 865.47 370.45, 867.11 370.44 C 868.75 370.43, 869.49 370.61, 870.77 370.90 C 872.05 371.18, 872.59 371.57, 873.52 371.85 C 874.45 372.14, 874.77 372.33, 875.42 372.31 C 876.08 372.29, 876.44 372.02, 876.79 371.74 C 877.14 371.47, 877.37 371.12, 877.19 370.94 C 877.01 370.76, 876.80 370.72, 875.88 370.83 C 874.96 370.94, 874.27 371.15, 872.60 371.49 C 870.92 371.83, 869.83 372.02, 867.50 372.55 C 865.16 373.08, 863.80 373.39, 860.93 374.15 C 858.06 374.91, 856.49 375.42, 853.15 376.35 C 849.80 377.29, 847.98 377.78, 844.21 378.80 C 840.44 379.81, 838.41 380.35, 834.30 381.44 C 830.20 382.52, 828.00 383.12, 823.68 384.23 C 819.36 385.35, 817.07 385.96, 812.69 387.00 C 808.31 388.04, 806.00 388.58, 801.76 389.43 C 797.52 390.28, 795.34 390.75, 791.51 391.25 C 787.69 391.75, 785.78 391.87, 782.63 391.95 C 779.49 392.03, 778.04 391.75, 775.79 391.67 C 773.53 391.59, 772.68 391.76, 771.36 391.55 C 770.04 391.35, 769.67 391.32, 769.18 390.64 C 768.70 389.95, 768.71 389.55, 768.96 388.14 C 769.20 386.73, 769.64 385.78, 770.42 383.56 C 771.19 381.34, 771.60 379.86, 772.83 377.03 C 774.06 374.21, 774.88 372.55, 776.57 369.42 C 778.26 366.29, 779.34 364.53, 781.28 361.38 C 783.22 358.22, 784.27 356.59, 786.27 353.66 C 788.27 350.74, 789.42 349.34, 791.28 346.74 C 793.15 344.15, 794.22 342.99, 795.60 340.70 C 796.97 338.40, 797.54 337.21, 798.17 335.28 C 798.81 333.35, 798.89 332.45, 798.77 331.03 C 798.66 329.61, 798.46 328.93, 797.60 328.19 C 796.74 327.46, 795.55 327.30, 794.47 327.37" style="stroke: black; fill: black;"/><path d="M 1009.64,410.15 C 1009.91 411.04, 1011.18 411.27, 1011.76 410.54 C 1012.33 409.81, 1012.77 407.39, 1012.49 406.51 C 1012.22 405.63, 1010.95 405.39, 1010.37 406.12 C 1009.80 406.85, 1009.36 409.27, 1009.64 410.15" style="stroke: black; fill: black;"/></svg>